SplineFontDB: 3.2
FontName: Konemo_Mono
FullName: Konemo Mono
FamilyName: Konemo_Mono
Weight: Regular
Copyright: Copyright (c) 2024, Jorim
UComments: "2024-12-18: Created with FontForge (http://fontforge.org)"
Version: 001.000
ItalicAngle: 0
UnderlinePosition: -100
UnderlineWidth: 50
Ascent: 800
Descent: 200
InvalidEm: 0
LayerCount: 2
Layer: 0 0 "Back" 1
Layer: 1 0 "Fore" 0
XUID: [1021 604 -182473755 11704715]
FSType: 0
OS2Version: 0
OS2_WeightWidthSlopeOnly: 0
OS2_UseTypoMetrics: 1
CreationTime: 1734519155
ModificationTime: 1734952515
PfmFamily: 17
TTFWeight: 400
TTFWidth: 5
LineGap: 90
VLineGap: 0
OS2TypoAscent: 0
OS2TypoAOffset: 1
OS2TypoDescent: 0
OS2TypoDOffset: 1
OS2TypoLinegap: 90
OS2WinAscent: 0
OS2WinAOffset: 1
OS2WinDescent: 0
OS2WinDOffset: 1
HheadAscent: 0
HheadAOffset: 1
HheadDescent: 0
HheadDOffset: 1
OS2Vendor: 'PfEd'
Lookup: 258 0 0 "nums" { "nums-1" [150,15,0] "nums-2" [150,15,0] } []
Lookup: 258 0 0 "konemo_numbers" { "konemo_numbers-1" [150,15,0] "konemo_numbers-2" [150,15,0] } []
MarkAttachClasses: 1
DEI: 91125
KernClass2: 1 1 "nums-2"
 0 {}
KernClass2: 1 1 "nums-1"
 0 {}
LangName: 1033
Encoding: ISO8859-1
UnicodeInterp: none
NameList: Adobe Glyph List
DisplaySize: -48
AntiAlias: 1
FitToEm: 0
WinInfo: 0 16 4
BeginPrivate: 0
EndPrivate
TeXData: 1 0 0 1153434 576716 384477 445645 1048576 384477 783286 444596 497025 792723 393216 433062 380633 303038 157286 324010 404750 52429 2506097 1059062 262144
AnchorClass2: "middle"""  "right"""  "left"""  "bottom"""  "top""" 
BeginChars: 256 256

StartChar: a
Encoding: 97 97 0
Width: 500
Flags: HW
HStem: 805 20G<118 132>
VStem: 100 50<87 824.802>
LayerCount: 2
Fore
SplineSet
190 717 m 1053
125 -25 m 0
 111 -25 100 -14 100 0 c 2
 100 800 l 2
 100 814 111 825 125 825 c 0
 139 825 150 814 150 800 c 2
 150 87 l 1
 354 413 l 2
 355 416 362 425 375 425 c 0
 389 425 400 414 400 400 c 0
 400 395 399 391 396 387 c 2
 146 -13 l 2
 145 -16 138 -25 125 -25 c 0
EndSplineSet
Validated: 1
EndChar

StartChar: b
Encoding: 98 98 1
Width: 500
Flags: HW
HStem: 375 21G<118 134 369.5 382> 805 20G<241 255.5 368 382> 905 20G<368 382>
VStem: 100 49<375.198 415.386> 350 50<375.198 412.38 675.198 924.802>
LayerCount: 2
Fore
SplineSet
400 400 m 0
 400 386 389 375 375 375 c 0
 364 375 354 382 351 393 c 2
 250 716 l 1
 149 393 l 2
 149 392 143 375 125 375 c 0
 111 375 100 386 100 400 c 0
 100 403 100 405 101 407 c 2
 226 807 l 2
 226 808 232 825 250 825 c 0
 261 825 271 818 274 807 c 2
 399 407 l 2
 400 405 400 403 400 400 c 0
375 675 m 0
 361 675 350 686 350 700 c 2
 350 900 l 2
 350 914 361 925 375 925 c 0
 389 925 400 914 400 900 c 2
 400 700 l 2
 400 686 389 675 375 675 c 0
EndSplineSet
Validated: 1
EndChar

StartChar: c
Encoding: 99 99 2
Width: 500
Flags: HW
HStem: -25 50<215.608 285.281> 775 50<240.877 299.802>
VStem: 100 50<185.515 589.048> 350 50<189.926 424.802>
LayerCount: 2
Fore
SplineSet
100 400 m 0
 100 541 146 825 275 825 c 0
 289 825 300 814 300 800 c 0
 300 786 289 775 275 775 c 0
 233 775 198 695 180 626 c 0
 160 552 150 465 150 400 c 0
 150 360 152 182 196 81 c 0
 209 51 227 25 250 25 c 0
 313 25 350 209 350 400 c 0
 350 414 361 425 375 425 c 0
 389 425 400 414 400 400 c 0
 400 331 394 84 313 3 c 0
 296 -14 275 -25 250 -25 c 0
 197 -25 149 21 121 159 c 0
 105 238 100 330 100 400 c 0
EndSplineSet
Validated: 1
EndChar

StartChar: d
Encoding: 100 100 3
Width: 500
Flags: HW
HStem: 375 21G<68 81.5> 805 20G<318.5 332 418 432> 905 20G<418 432>
VStem: 400 50<675.198 924.802>
LayerCount: 2
Fore
SplineSet
325 425 m 0
 339 425 350 414 350 400 c 0
 350 395 349 391 346 387 c 2
 96 -13 l 2
 95 -16 88 -25 75 -25 c 0
 61 -25 50 -14 50 0 c 0
 50 5 51 9 54 13 c 2
 304 413 l 2
 305 416 312 425 325 425 c 0
75 375 m 0
 61 375 50 386 50 400 c 0
 50 405 51 409 54 413 c 2
 304 813 l 2
 305 816 312 825 325 825 c 0
 339 825 350 814 350 800 c 0
 350 795 349 791 346 787 c 2
 96 387 l 2
 95 384 88 375 75 375 c 0
425 675 m 0
 411 675 400 686 400 700 c 2
 400 900 l 2
 400 914 411 925 425 925 c 0
 439 925 450 914 450 900 c 2
 450 700 l 2
 450 686 439 675 425 675 c 0
EndSplineSet
Validated: 1
EndChar

StartChar: e
Encoding: 101 101 4
Width: 500
Flags: HW
HStem: 805 20G<368 382>
VStem: 350 50<87 824.802>
LayerCount: 2
Fore
SplineSet
216 694 m 1053
400 0 m 2
 400 -14 389 -25 375 -25 c 0
 372 -25 361 -24 354 -13 c 2
 104 387 l 2
 101 391 100 395 100 400 c 0
 100 414 111 425 125 425 c 0
 128 425 139 424 146 413 c 2
 350 87 l 1
 350 800 l 2
 350 814 361 825 375 825 c 0
 389 825 400 814 400 800 c 2
 400 0 l 2
EndSplineSet
Validated: 1
EndChar

StartChar: f
Encoding: 102 102 5
Width: 500
Flags: HW
HStem: -25 50<232.627 310.685> 775 50<200.198 266.625>
VStem: 100 50<184.269 424.802> 350 50<183.806 615.731>
LayerCount: 2
Fore
SplineSet
350 400 m 0
 350 604 298 775 225 775 c 0
 211 775 200 786 200 800 c 0
 200 814 211 825 225 825 c 0
 349 825 400 605 400 400 c 0
 400 398 400 395 400 393 c 0
 400 216 399 62 338 1 c 0
 322 -15 300 -25 275 -25 c 0
 151 -25 100 195 100 400 c 0
 100 414 111 425 125 425 c 0
 139 425 150 414 150 400 c 0
 150 196 202 25 275 25 c 0
 288 25 325 26 341 150 c 0
 350 219 350 309 350 400 c 0
EndSplineSet
Validated: 1
EndChar

StartChar: g
Encoding: 103 103 6
Width: 500
Flags: HW
HStem: 805 20G<318.5 332 418 432> 905 20G<418 432>
VStem: 400 50<675.198 924.802>
LayerCount: 2
Fore
SplineSet
350 0 m 0
 350 -14 339 -25 325 -25 c 0
 322 -25 311 -24 304 -13 c 2
 54 387 l 2
 51 391 50 395 50 400 c 0
 50 405 51 409 54 413 c 2
 304 813 l 2
 305 816 312 825 325 825 c 0
 339 825 350 814 350 800 c 0
 350 795 349 791 346 787 c 2
 104 400 l 1
 346 13 l 2
 349 9 350 5 350 0 c 0
425 675 m 0
 411 675 400 686 400 700 c 2
 400 900 l 2
 400 914 411 925 425 925 c 0
 439 925 450 914 450 900 c 2
 450 700 l 2
 450 686 439 675 425 675 c 0
EndSplineSet
Validated: 1
EndChar

StartChar: h
Encoding: 104 104 7
Width: 500
Flags: HW
HStem: -25 50<210.335 289.665> 775 50<210.335 289.665>
VStem: 100 50<186.315 613.907> 350 50<186.093 613.685>
LayerCount: 2
Fore
SplineSet
250 825 m 0
 277 825 301 813 319 795 c 0
 349 765 400 688 400 400 c 0
 400 111 349 35 319 5 c 0
 301 -13 277 -25 250 -25 c 0
 223 -25 199 -13 181 5 c 0
 151 35 100 112 100 400 c 0
 100 689 151 765 181 795 c 0
 199 813 223 825 250 825 c 0
250 775 m 0
 237 775 227 771 216 760 c 0
 197 741 180 699 169 644 c 0
 155 576 150 488 150 400 c 0
 150 312 155 224 169 156 c 0
 180 101 197 59 216 40 c 0
 227 29 237 25 250 25 c 0
 263 25 273 29 284 40 c 0
 303 59 320 101 331 156 c 0
 345 224 350 312 350 400 c 0
 350 488 345 576 331 644 c 0
 320 699 303 741 284 760 c 0
 273 771 263 775 250 775 c 0
EndSplineSet
Validated: 1
EndChar

StartChar: j
Encoding: 106 106 8
Width: 500
Flags: HW
HStem: -25 50<215.608 285.281> 775 50<240.877 299.802> 905 20G<368 382> 905 20G<368 382>
VStem: 100 50<185.515 589.048> 350 50<189.926 424.802 675.198 924.802>
LayerCount: 2
Fore
SplineSet
100 400 m 0xcc
 100 541 146 825 275 825 c 0
 289 825 300 814 300 800 c 0
 300 786 289 775 275 775 c 0
 233 775 198 695 180 626 c 0
 160 552 150 465 150 400 c 0
 150 360 152 182 196 81 c 0
 209 51 227 25 250 25 c 0
 313 25 350 209 350 400 c 0
 350 414 361 425 375 425 c 0
 389 425 400 414 400 400 c 0
 400 331 394 84 313 3 c 0
 296 -14 275 -25 250 -25 c 0
 197 -25 149 21 121 159 c 0
 105 238 100 330 100 400 c 0xcc
375 675 m 0
 361 675 350 686 350 700 c 2
 350 900 l 2
 350 914 361 925 375 925 c 0xec
 389 925 400 914 400 900 c 2
 400 700 l 2
 400 686 389 675 375 675 c 0
EndSplineSet
Validated: 1
EndChar

StartChar: k
Encoding: 107 107 9
Width: 500
Flags: HW
HStem: 805 20G<368.5 382>
VStem: 100 300
LayerCount: 2
Fore
SplineSet
400 0 m 0
 400 -14 389 -25 375 -25 c 0
 372 -25 361 -24 354 -13 c 2
 104 387 l 2
 101 391 100 395 100 400 c 0
 100 405 101 409 104 413 c 2
 354 813 l 2
 355 816 362 825 375 825 c 0
 389 825 400 814 400 800 c 0
 400 795 399 791 396 787 c 2
 154 400 l 1
 396 13 l 2
 399 9 400 5 400 0 c 0
EndSplineSet
Validated: 1
EndChar

StartChar: l
Encoding: 108 108 10
Width: 500
Flags: HW
HStem: -25 50<160.335 239.665> 775 50<160.335 239.665> 905 20G<418 432> 905 20G<418 432>
VStem: 50 50<186.315 613.907> 300 50<186.093 613.685> 400 50<675.198 924.802>
LayerCount: 2
Fore
SplineSet
200 775 m 0xce
 187 775 177 771 166 760 c 0
 147 741 130 699 119 644 c 0
 105 576 100 488 100 400 c 0
 100 312 105 224 119 156 c 0
 130 101 147 59 166 40 c 0
 177 29 187 25 200 25 c 0
 213 25 223 29 234 40 c 0
 253 59 270 101 281 156 c 0
 295 224 300 312 300 400 c 0
 300 488 295 576 281 644 c 0
 270 699 253 741 234 760 c 0
 223 771 213 775 200 775 c 0xce
200 825 m 0
 227 825 251 813 269 795 c 0
 299 765 350 688 350 400 c 0
 350 111 299 35 269 5 c 0
 251 -13 227 -25 200 -25 c 0
 173 -25 149 -13 131 5 c 0
 101 35 50 112 50 400 c 0
 50 689 101 765 131 795 c 0
 149 813 173 825 200 825 c 0
425 675 m 0
 411 675 400 686 400 700 c 2
 400 900 l 2
 400 914 411 925 425 925 c 0xee
 439 925 450 914 450 900 c 2
 450 700 l 2
 450 686 439 675 425 675 c 0
EndSplineSet
Validated: 1
EndChar

StartChar: m
Encoding: 109 109 11
Width: 500
Flags: HW
HStem: 805 20G<118 126.5>
VStem: 100 300
LayerCount: 2
Fore
SplineSet
213 721 m 1053
125 -25 m 0
 111 -25 100 -14 100 0 c 0
 100 5 101 9 104 13 c 2
 346 400 l 1
 104 787 l 2
 101 791 100 795 100 800 c 0
 100 814 111 825 125 825 c 0
 128 825 139 824 146 813 c 2
 396 413 l 2
 399 409 400 405 400 400 c 0
 400 395 399 391 396 387 c 2
 146 -13 l 2
 145 -16 138 -25 125 -25 c 0
EndSplineSet
Validated: 1
EndChar

StartChar: n
Encoding: 110 110 12
Width: 500
Flags: HW
HStem: 375 21G<373.5 382> 805 20G<118 126.5>
VStem: 100 300<395 405>
LayerCount: 2
Fore
SplineSet
400 0 m 0
 400 -14 389 -25 375 -25 c 0
 372 -25 361 -24 354 -13 c 2
 104 387 l 2
 101 391 100 395 100 400 c 0
 100 414 111 425 125 425 c 0
 128 425 139 424 146 413 c 2
 396 13 l 2
 399 9 400 5 400 0 c 0
400 400 m 0
 400 386 389 375 375 375 c 0
 372 375 361 376 354 387 c 2
 104 787 l 2
 101 791 100 795 100 800 c 0
 100 814 111 825 125 825 c 0
 128 825 139 824 146 813 c 6
 396 413 l 6
 399 409 400 405 400 400 c 0
EndSplineSet
Validated: 1
EndChar

StartChar: o
Encoding: 111 111 13
Width: 500
Flags: HW
HStem: 375 21G<118 131.5> 805 20G<368.5 382>
VStem: 350 50<-24.8024 713>
LayerCount: 2
Fore
SplineSet
375 -25 m 0
 361 -25 350 -14 350 0 c 2
 350 713 l 1
 146 387 l 2
 145 384 138 375 125 375 c 0
 111 375 100 386 100 400 c 0
 100 405 101 409 104 413 c 2
 354 813 l 2
 355 816 362 825 375 825 c 0
 389 825 400 814 400 800 c 2
 400 0 l 2
 400 -14 389 -25 375 -25 c 0
EndSplineSet
Validated: 1
EndChar

StartChar: p
Encoding: 112 112 14
Width: 500
Flags: HW
HStem: 375 21G<118 134 369.5 382> 805 20G<241 255.5>
VStem: 100 49<375.198 415.386> 351 49<375.198 415.386>
LayerCount: 2
Fore
SplineSet
400 400 m 0
 400 386 389 375 375 375 c 0
 364 375 354 382 351 393 c 2
 250 716 l 1
 149 393 l 2
 149 392 143 375 125 375 c 0
 111 375 100 386 100 400 c 0
 100 403 100 405 101 407 c 2
 226 807 l 2
 226 808 232 825 250 825 c 0
 261 825 271 818 274 807 c 2
 399 407 l 2
 400 405 400 403 400 400 c 0
EndSplineSet
Validated: 1
EndChar

StartChar: q
Encoding: 113 113 15
Width: 500
Flags: HW
VStem: 351 49<384.614 424.802>
LayerCount: 2
Fore
SplineSet
375 425 m 0
 389 425 400 414 400 400 c 0
 400 397 400 395 399 393 c 2
 274 -7 l 2
 274 -8 268 -25 250 -25 c 0
 239 -25 229 -18 226 -7 c 2
 101 393 l 2
 100 395 100 397 100 400 c 0
 100 414 111 425 125 425 c 0
 136 425 146 418 149 407 c 2
 250 84 l 1
 351 407 l 2
 351 408 357 425 375 425 c 0
EndSplineSet
Validated: 1
EndChar

StartChar: r
Encoding: 114 114 16
Width: 500
Flags: HW
HStem: -25 50<150.198 216.625> 375 21G<68 82> 775 50<182.717 259.111> 905 20G<418 432> 905 20G<418 432>
VStem: 50 50<375.198 614.706> 300 50<185.294 613.116> 400 50<675.198 924.802>
LayerCount: 2
Fore
SplineSet
225 775 m 4xe7
 152 775 100 604 100 400 c 4
 100 386 89 375 75 375 c 0
 61 375 50 386 50 400 c 0
 50 542 75 718 149 791 c 0
 169 811 195 825 225 825 c 0
 315 825 334 709 340 657 c 0
 350 584 350 495 350 407 c 0
 350 405 350 400 350 400 c 0
 350 258 325 82 251 9 c 0
 231 -11 205 -25 175 -25 c 0
 161 -25 150 -14 150 0 c 0
 150 14 161 25 175 25 c 0
 248 25 300 196 300 400 c 0
 300 548 300 716 253 763 c 0
 245 771 237 775 225 775 c 4xe7
425 675 m 0
 411 675 400 686 400 700 c 2
 400 900 l 2
 400 914 411 925 425 925 c 0xf7
 439 925 450 914 450 900 c 2
 450 700 l 2
 450 686 439 675 425 675 c 0
EndSplineSet
Validated: 1
EndChar

StartChar: s
Encoding: 115 115 17
Width: 500
Flags: HW
HStem: -25 50<233.375 299.802> 375 21G<368 382> 775 50<189.315 267.373>
VStem: 100 50<184.269 616.194> 350 50<375.198 615.731>
LayerCount: 2
Fore
SplineSet
225 825 m 0
 349 825 400 605 400 400 c 0
 400 386 389 375 375 375 c 0
 361 375 350 386 350 400 c 0
 350 604 298 775 225 775 c 0
 212 775 175 774 159 650 c 0
 150 581 150 491 150 400 c 0
 150 196 202 25 275 25 c 0
 289 25 300 14 300 0 c 0
 300 -14 289 -25 275 -25 c 0
 151 -25 100 195 100 400 c 0
 100 402 100 405 100 407 c 0
 100 584 101 738 162 799 c 0
 178 815 200 825 225 825 c 0
EndSplineSet
Validated: 1
EndChar

StartChar: t
Encoding: 116 116 18
Width: 500
Flags: HW
HStem: 375 21G<118 131.5> 805 20G<368.5 382>
VStem: 100 300<395 405>
LayerCount: 2
Fore
SplineSet
375 425 m 0
 389 425 400 414 400 400 c 0
 400 395 399 391 396 387 c 2
 146 -13 l 2
 145 -16 138 -25 125 -25 c 0
 111 -25 100 -14 100 0 c 0
 100 5 101 9 104 13 c 2
 354 413 l 2
 355 416 362 425 375 425 c 0
125 375 m 0
 111 375 100 386 100 400 c 0
 100 405 101 409 104 413 c 2
 354 813 l 2
 355 816 362 825 375 825 c 0
 389 825 400 814 400 800 c 0
 400 795 399 791 396 787 c 2
 146 387 l 2
 145 384 138 375 125 375 c 0
EndSplineSet
Validated: 1
EndChar

StartChar: u
Encoding: 117 117 19
Width: 500
Flags: HW
HStem: 375 21G<373.5 382> 805 20G<118 126.5>
VStem: 100 50<-24.8024 713>
LayerCount: 2
Fore
SplineSet
400 400 m 0
 400 386 389 375 375 375 c 0
 372 375 361 376 354 387 c 2
 150 713 l 1
 150 0 l 2
 150 -14 139 -25 125 -25 c 0
 111 -25 100 -14 100 0 c 2
 100 800 l 2
 100 814 111 825 125 825 c 0
 128 825 139 824 146 813 c 6
 396 413 l 6
 399 409 400 405 400 400 c 0
EndSplineSet
Validated: 1
EndChar

StartChar: v
Encoding: 118 118 20
Width: 500
Flags: HW
HStem: -25 50<182.627 260.685> 775 50<150.198 216.625> 905 20G<418 432> 905 20G<418 432>
VStem: 50 50<184.269 424.802> 300 50<183.806 615.731> 400 50<675.198 924.802>
LayerCount: 2
Fore
SplineSet
300 400 m 0xce
 300 604 248 775 175 775 c 0
 161 775 150 786 150 800 c 0
 150 814 161 825 175 825 c 0
 299 825 350 605 350 400 c 0
 350 398 350 395 350 393 c 0
 350 216 349 62 288 1 c 0
 272 -15 250 -25 225 -25 c 0
 101 -25 50 195 50 400 c 0
 50 414 61 425 75 425 c 0
 89 425 100 414 100 400 c 0
 100 196 152 25 225 25 c 0
 238 25 275 26 291 150 c 0
 300 219 300 309 300 400 c 0xce
425 675 m 0
 411 675 400 686 400 700 c 2
 400 900 l 2
 400 914 411 925 425 925 c 0xee
 439 925 450 914 450 900 c 2
 450 700 l 2
 450 686 439 675 425 675 c 0
EndSplineSet
Validated: 1
EndChar

StartChar: w
Encoding: 119 119 21
Width: 500
Flags: HW
HStem: 375 50<170 399.802> 805 20G<368.5 382>
VStem: 100 300<380.75 419.25>
LayerCount: 2
Fore
SplineSet
375 825 m 0
 389 825 400 814 400 800 c 0
 400 795 399 791 396 787 c 2
 170 425 l 1
 375 425 l 2
 389 425 400 414 400 400 c 0
 400 386 389 375 375 375 c 2
 170 375 l 1
 396 13 l 2
 399 9 400 5 400 0 c 0
 400 -14 389 -25 375 -25 c 0
 372 -25 361 -24 354 -13 c 2
 104 387 l 2
 101 391 100 395 100 400 c 0
 100 405 101 409 104 413 c 2
 354 813 l 2
 355 816 362 825 375 825 c 0
EndSplineSet
Validated: 1
EndChar

StartChar: x
Encoding: 120 120 22
Width: 500
Flags: HW
HStem: -25 50<200.198 266.625> 375 21G<118 132> 775 50<232.717 309.111>
VStem: 100 50<375.198 614.706> 350 50<185.294 613.116>
LayerCount: 2
Fore
SplineSet
275 775 m 4
 202 775 150 604 150 400 c 4
 150 386 139 375 125 375 c 0
 111 375 100 386 100 400 c 0
 100 542 125 718 199 791 c 0
 219 811 245 825 275 825 c 0
 365 825 384 709 390 657 c 0
 400 584 400 495 400 407 c 0
 400 405 400 400 400 400 c 0
 400 258 375 82 301 9 c 0
 281 -11 255 -25 225 -25 c 0
 211 -25 200 -14 200 0 c 0
 200 14 211 25 225 25 c 0
 298 25 350 196 350 400 c 0
 350 548 350 716 303 763 c 0
 295 771 287 775 275 775 c 4
EndSplineSet
Validated: 1
EndChar

StartChar: z
Encoding: 122 122 23
Width: 500
Flags: HW
HStem: -25 50<183.375 249.802> 375 21G<318 332> 775 50<139.315 217.373> 905 20G<418 432> 905 20G<418 432>
VStem: 50 50<184.269 616.194> 300 50<375.198 615.731> 400 50<675.198 924.802>
LayerCount: 2
Fore
SplineSet
175 825 m 0xe7
 299 825 350 605 350 400 c 0
 350 386 339 375 325 375 c 0
 311 375 300 386 300 400 c 0
 300 604 248 775 175 775 c 0
 162 775 125 774 109 650 c 0
 100 581 100 491 100 400 c 0
 100 196 152 25 225 25 c 0
 239 25 250 14 250 0 c 0
 250 -14 239 -25 225 -25 c 0
 101 -25 50 195 50 400 c 0
 50 402 50 405 50 407 c 0
 50 584 51 738 112 799 c 0
 128 815 150 825 175 825 c 0xe7
425 675 m 0
 411 675 400 686 400 700 c 2
 400 900 l 2
 400 914 411 925 425 925 c 0xf7
 439 925 450 914 450 900 c 2
 450 700 l 2
 450 686 439 675 425 675 c 0
EndSplineSet
Validated: 1
EndChar

StartChar: one
Encoding: 49 49 24
Width: 500
Flags: HW
HStem: 375 21G<118 131.5> 805 20G<368.5 382>
VStem: 100 300
LayerCount: 2
Fore
SplineSet
125 375 m 0
 111 375 100 386 100 400 c 0
 100 405 101 409 104 413 c 2
 354 813 l 2
 355 816 362 825 375 825 c 0
 389 825 400 814 400 800 c 0
 400 795 399 791 396 787 c 2
 146 387 l 2
 145 384 138 375 125 375 c 0
EndSplineSet
Validated: 1
EndChar

StartChar: two
Encoding: 50 50 25
Width: 500
Flags: HW
HStem: 375 21G<373.5 382> 805 20G<118 126.5>
VStem: 100 300
LayerCount: 2
Fore
SplineSet
231 751 m 1053
400 400 m 0
 400 386 389 375 375 375 c 0
 372 375 361 376 354 387 c 2
 104 787 l 2
 101 791 100 795 100 800 c 0
 100 814 111 825 125 825 c 0
 128 825 139 824 146 813 c 2
 396 413 l 2
 399 409 400 405 400 400 c 0
EndSplineSet
Validated: 1
EndChar

StartChar: three
Encoding: 51 51 26
Width: 500
Flags: HW
VStem: 100 300
LayerCount: 2
Fore
SplineSet
125 -25 m 0
 111 -25 100 -14 100 0 c 0
 100 5 101 9 104 13 c 2
 354 413 l 2
 355 416 362 425 375 425 c 0
 389 425 400 414 400 400 c 0
 400 395 399 391 396 387 c 2
 146 -13 l 2
 145 -16 138 -25 125 -25 c 0
EndSplineSet
Validated: 1
EndChar

StartChar: four
Encoding: 52 52 27
Width: 500
Flags: HW
VStem: 100 300
LayerCount: 2
Fore
SplineSet
233 207 m 1053
400 0 m 0
 400 -14 389 -25 375 -25 c 0
 372 -25 361 -24 354 -13 c 2
 104 387 l 2
 101 391 100 395 100 400 c 0
 100 414 111 425 125 425 c 0
 128 425 139 424 146 413 c 2
 396 13 l 2
 399 9 400 5 400 0 c 0
EndSplineSet
Validated: 1
EndChar

StartChar: five
Encoding: 53 53 28
Width: 500
Flags: HW
HStem: 375 50<-24.8024 524.802>
LayerCount: 2
Fore
SplineSet
234 235 m 1053
525 400 m 0
 525 386 514 375 500 375 c 2
 0 375 l 2
 -14 375 -25 386 -25 400 c 0
 -25 414 -14 425 0 425 c 2
 500 425 l 2
 514 425 525 414 525 400 c 0
EndSplineSet
Validated: 1
EndChar

StartChar: zero
Encoding: 48 48 29
Width: 500
Flags: HW
HStem: 375 21G<-7 6.5> 805 20G<243.5 257>
VStem: 225 50<87 713>
LayerCount: 2
Fore
SplineSet
250 825 m 0
 264 825 275 814 275 800 c 2
 275 87 l 1
 479 413 l 2
 480 416 487 425 500 425 c 0
 514 425 525 414 525 400 c 0
 525 395 524 391 521 387 c 2
 271 -13 l 2
 270 -16 263 -25 250 -25 c 0
 236 -25 225 -14 225 0 c 2
 225 713 l 1
 21 387 l 2
 20 384 13 375 0 375 c 0
 -14 375 -25 386 -25 400 c 0
 -25 405 -24 409 -21 413 c 2
 229 813 l 2
 230 816 237 825 250 825 c 0
EndSplineSet
Validated: 1
EndChar

StartChar: period
Encoding: 46 46 30
Width: 500
Flags: HW
HStem: -105 130
VStem: 200 100
LayerCount: 2
Fore
SplineSet
300 -80 m 0
 300 -94 289 -105 275 -105 c 0
 272 -105 261 -104 254 -93 c 2
 204 -13 l 2
 201 -9 200 -5 200 0 c 0
 200 14 211 25 225 25 c 0
 228 25 239 24 246 13 c 2
 296 -67 l 2
 299 -71 300 -75 300 -80 c 0
EndSplineSet
Validated: 1
EndChar

StartChar: comma
Encoding: 44 44 31
Width: 500
Flags: HW
HStem: -105 130
VStem: 200 100
LayerCount: 2
Fore
SplineSet
275 25 m 0
 289 25 300 14 300 0 c 0
 300 -5 299 -9 296 -13 c 0
 245 -96 245 -96 243 -98 c 0
 238 -103 231 -105 225 -105 c 0
 211 -105 200 -94 200 -80 c 0
 200 -75 201 -71 204 -67 c 0
 255 16 255 16 257 18 c 0
 262 23 269 25 275 25 c 0
EndSplineSet
Validated: 1
EndChar

StartChar: exclam
Encoding: 33 33 32
Width: 500
Flags: HW
HStem: 375 50<170 350> 805 20G<368.5 382>
VStem: 350 50<-24.8024 375 425 713>
LayerCount: 2
Fore
SplineSet
1055 905 m 1049
375 -25 m 0
 361 -25 350 -14 350 0 c 2
 350 375 l 1
 125 375 l 2
 111 375 100 386 100 400 c 0
 100 405 101 409 104 413 c 2
 354 813 l 2
 355 816 362 825 375 825 c 0
 389 825 400 814 400 800 c 2
 400 0 l 2
 400 -14 389 -25 375 -25 c 0
350 425 m 1
 350 713 l 1
 170 425 l 1
 350 425 l 1
EndSplineSet
Validated: 1
EndChar

StartChar: question
Encoding: 63 63 33
Width: 500
Flags: HW
HStem: 375 50<150 330> 805 20G<118 131.5>
VStem: 100 50<-24.8024 375 425 713>
LayerCount: 2
Fore
SplineSet
125 -25 m 0
 111 -25 100 -14 100 0 c 2
 100 800 l 2
 100 814 111 825 125 825 c 0
 138 825 145 816 146 813 c 2
 396 413 l 2
 399 409 400 405 400 400 c 0
 400 386 389 375 375 375 c 2
 150 375 l 1
 150 0 l 2
 150 -14 139 -25 125 -25 c 0
150 425 m 1
 330 425 l 1
 150 713 l 1
 150 425 l 1
EndSplineSet
Validated: 1
EndChar

StartChar: plus
Encoding: 43 43 34
Width: 500
Flags: HW
HStem: 375 50<-24.8024 225 275 524.802> 805 20G<243 257>
VStem: 225 50<425 824.802>
LayerCount: 2
Fore
SplineSet
225 800 m 2
 225 814 236 825 250 825 c 0
 264 825 275 814 275 800 c 2
 275 425 l 1
 500 425 l 2
 514 425 525 414 525 400 c 0
 525 386 514 375 500 375 c 0
 0 375 0 375 0 375 c 2
 -14 375 -25 386 -25 400 c 0
 -25 414 -14 425 0 425 c 2
 225 425 l 1
 225 800 l 2
EndSplineSet
Validated: 1
EndChar

StartChar: hyphen
Encoding: 45 45 35
Width: 500
Flags: HW
HStem: 375 50<-24.8024 225 275 524.802>
VStem: 225 50<-24.8024 375>
LayerCount: 2
Fore
SplineSet
225 0 m 2
 225 375 l 1
 0 375 l 2
 -14 375 -25 386 -25 400 c 0
 -25 414 -14 425 0 425 c 2
 0 425 0 425 500 425 c 0
 514 425 525 414 525 400 c 0
 525 386 514 375 500 375 c 2
 275 375 l 1
 275 0 l 2
 275 -14 264 -25 250 -25 c 0
 236 -25 225 -14 225 0 c 2
EndSplineSet
Validated: 1
EndChar

StartChar: asterisk
Encoding: 42 42 36
Width: 500
Flags: HW
HStem: 375 50<150 399.802> 805 20G<118 132>
VStem: 100 50<-24.8024 375 425 824.802>
LayerCount: 2
Fore
SplineSet
125 825 m 0
 139 825 150 814 150 800 c 2
 150 425 l 1
 375 425 l 2
 389 425 400 414 400 400 c 0
 400 386 389 375 375 375 c 2
 150 375 l 1
 150 0 l 2
 150 -14 139 -25 125 -25 c 0
 111 -25 100 -14 100 0 c 0
 100 800 100 800 100 800 c 2
 100 814 111 825 125 825 c 0
EndSplineSet
Validated: 1
EndChar

StartChar: slash
Encoding: 47 47 37
Width: 500
Flags: HW
HStem: 375 50<100.198 350> 805 20G<368 382>
VStem: 350 50<-24.8024 375 425 824.802>
LayerCount: 2
Fore
SplineSet
375 825 m 0
 389 825 400 814 400 800 c 2
 400 800 400 800 400 0 c 0
 400 -14 389 -25 375 -25 c 0
 361 -25 350 -14 350 0 c 2
 350 375 l 1
 125 375 l 2
 111 375 100 386 100 400 c 0
 100 414 111 425 125 425 c 2
 350 425 l 1
 350 800 l 2
 350 814 361 825 375 825 c 0
EndSplineSet
Validated: 1
EndChar

StartChar: quotesingle
Encoding: 39 39 38
Width: 500
Flags: HW
HStem: 675 250<225.198 274.802>
VStem: 225 50<675.198 924.802>
LayerCount: 2
Fore
SplineSet
250 675 m 0
 236 675 225 686 225 700 c 2
 225 900 l 2
 225 914 236 925 250 925 c 0
 264 925 275 914 275 900 c 2
 275 700 l 2
 275 686 264 675 250 675 c 0
EndSplineSet
Validated: 1
EndChar

StartChar: equal
Encoding: 61 61 39
Width: 500
Flags: HW
HStem: 375 50<-24.8024 225 275 524.802> 805 20G<243 257>
VStem: 225 50<-24.8024 375 425 824.802>
LayerCount: 2
Fore
SplineSet
250 825 m 0
 264 825 275 814 275 800 c 2
 275 425 l 1
 500 425 l 2
 514 425 525 414 525 400 c 0
 525 386 514 375 500 375 c 2
 275 375 l 1
 275 0 l 2
 275 -14 264 -25 250 -25 c 0
 236 -25 225 -14 225 0 c 2
 225 375 l 1
 0 375 l 2
 -14 375 -25 386 -25 400 c 0
 -25 414 -14 425 0 425 c 2
 225 425 l 5
 225 800 l 6
 225 814 236 825 250 825 c 0
EndSplineSet
Validated: 1
EndChar

StartChar: bar
Encoding: 124 124 40
Width: 500
Flags: HW
HStem: 805 20G<243 257>
VStem: 225 50<-24.8024 824.802>
LayerCount: 2
Fore
SplineSet
250 -25 m 0
 236 -25 225 -14 225 0 c 2
 225 800 l 2
 225 814 236 825 250 825 c 0
 264 825 275 814 275 800 c 2
 275 0 l 2
 275 -14 264 -25 250 -25 c 0
EndSplineSet
Validated: 1
EndChar

StartChar: agrave
Encoding: 224 224 46
Width: 500
Flags: HW
HStem: 375 50<159 341> 805 20G<241 255.5>
VStem: 100 300<375.198 419.5>
LayerCount: 2
Fore
SplineSet
341 425 m 1
 250 716 l 1
 159 425 l 1
 341 425 l 1
125 375 m 2
 111 375 100 386 100 400 c 0
 100 403 100 405 101 407 c 2
 226 807 l 2
 226 808 232 825 250 825 c 0
 261 825 271 818 274 807 c 2
 399 407 l 2
 400 405 400 403 400 400 c 0
 400 386 389 375 375 375 c 2
 125 375 l 2
EndSplineSet
Validated: 1
EndChar

StartChar: aacute
Encoding: 225 225 47
Width: 500
Flags: HW
HStem: 805 20G<240.5 257>
VStem: 226 49<-7 14.7742 781.8 807>
LayerCount: 2
Fore
SplineSet
125 325 m 0
 111 325 100 336 100 350 c 0
 100 352 100 355 101 357 c 2
 226 807 l 2
 226 807 231 825 250 825 c 0
 264 825 275 814 275 800 c 0
 275 798 275 795 274 793 c 2
 163 392 l 1
 366 473 l 2
 369 474 372 475 375 475 c 0
 389 475 400 464 400 450 c 0
 400 448 400 445 399 443 c 2
 274 -7 l 2
 274 -7 269 -25 250 -25 c 0
 236 -25 225 -14 225 0 c 0
 225 2 225 5 226 7 c 2
 337 408 l 1
 134 327 l 2
 131 326 128 325 125 325 c 0
EndSplineSet
Validated: 1
EndChar

StartChar: ograve
Encoding: 242 242 48
Width: 500
Flags: HW
HStem: 375 50<100.198 330> 805 20G<118 126.5>
VStem: 100 300<380.75 424.595>
LayerCount: 2
Fore
SplineSet
100 800 m 0
 100 814 111 825 125 825 c 0
 128 825 139 824 146 813 c 0
 398 411 398 411 398 409 c 0
 399 406 400 403 400 400 c 0
 400 395 399 391 396 387 c 2
 146 -13 l 2
 145 -16 138 -25 125 -25 c 0
 111 -25 100 -14 100 0 c 0
 100 5 101 9 104 13 c 2
 330 375 l 1
 125 375 l 2
 111 375 100 386 100 400 c 0
 100 414 111 425 125 425 c 2
 330 425 l 1
 104 787 l 2
 101 791 100 795 100 800 c 0
EndSplineSet
Validated: 1
EndChar

StartChar: ugrave
Encoding: 249 249 49
Width: 500
Flags: HW
HStem: 805 20G<243 259.5>
VStem: 226 49<-7 18.2 785.226 807>
LayerCount: 2
Fore
SplineSet
375 325 m 0
 372 325 369 326 366 327 c 2
 163 408 l 1
 274 7 l 2
 275 5 275 2 275 0 c 0
 275 -14 264 -25 250 -25 c 0
 231 -25 226 -7 226 -7 c 2
 101 443 l 2
 100 445 100 448 100 450 c 0
 100 464 111 475 125 475 c 0
 128 475 131 474 134 473 c 2
 337 392 l 1
 226 793 l 2
 225 795 225 798 225 800 c 0
 225 814 236 825 250 825 c 0
 269 825 274 807 274 807 c 2
 399 357 l 2
 400 355 400 352 400 350 c 0
 400 336 389 325 375 325 c 0
EndSplineSet
Validated: 1
EndChar

StartChar: uacute
Encoding: 250 250 50
Width: 500
Flags: HW
HStem: 375 50<159 341>
VStem: 100 300<380.5 424.802>
LayerCount: 2
Fore
SplineSet
341 375 m 1
 159 375 l 1
 250 84 l 1
 341 375 l 1
125 425 m 2
 375 425 l 2
 389 425 400 414 400 400 c 0
 400 397 400 395 399 393 c 2
 274 -7 l 2
 271 -18 261 -25 250 -25 c 0
 232 -25 226 -8 226 -7 c 2
 101 393 l 2
 100 395 100 397 100 400 c 0
 100 414 111 425 125 425 c 2
EndSplineSet
Validated: 1
EndChar

